<svg xmlns="http://www.w3.org/2000/svg" id="SvgjsSvg1396" width="200" height="200" viewBox="0 0 512 512" version="1.1" xmlns:xlink="http://www.w3.org/1999/xlink" xmlns:svgjs="http://svgjs.dev/svgjs"><path d="M266.648 507.589c-5.881 5.881-15.415 5.881-21.296 0L102.293 364.531c-5.881-5.881-5.881-15.416 0-21.296l143.059-143.059c5.881-5.881 15.415-5.881 21.296 0l143.059 143.059c5.881 5.881 5.881 15.416 0 21.296zm0-346.353c-5.881 5.881-15.415 5.881-21.296 0l-67.765-67.765c-5.881-5.881-5.881-15.416 0-21.296L245.352 4.41c5.881-5.881 15.415-5.881 21.296 0l67.765 67.765c5.881 5.881 5.881 15.416 0 21.296z" fill="url(&quot;#SvgjsLinearGradient1397&quot;)"></path><defs><linearGradient gradientTransform="rotate(0 0.5 0.5)" id="SvgjsLinearGradient1397"><stop stop-opacity=" 1" stop-color="rgba(105, 234, 203)" offset="0"></stop><stop stop-opacity=" 1" stop-color="rgba(234, 204, 248)" offset="0.48"></stop><stop stop-opacity=" 1" stop-color="rgba(209, 203, 255)" offset="1"></stop></linearGradient></defs></svg>